<svg width="30" height="30" viewBox="0 0 30 30" fill="none" xmlns="http://www.w3.org/2000/svg">
<path d="M19.0649 3.85876C15.7041 4.93518 13.4993 7.5813 12.4504 11.7971C10.8772 18.1208 8.92749 18.9272 2.57996 16.678C4.85962 20.8887 9.4801 22.5769 12.4504 22.5769C15.4208 22.5769 23.1138 18.4413 22.2323 10.5802C21.4672 8.29065 20.4114 6.05017 19.0649 3.85876Z" fill="#56D6FF"/>
<path d="M21.2687 19.1552L29.5651 27.4652C30.145 28.0451 30.145 28.9852 29.5651 29.5651C28.9852 30.145 28.0451 30.145 27.4652 29.5651L19.1705 21.2568C17.1578 22.824 14.6273 23.7575 11.8788 23.7575C5.3183 23.7575 0 18.4392 0 11.8788C0 5.3183 5.3183 0 11.8788 0C18.4392 0 23.7575 5.3183 23.7575 11.8788C23.7575 14.6203 22.8288 17.145 21.2687 19.1552ZM11.8788 20.7878C16.7991 20.7878 20.7878 16.7991 20.7878 11.8788C20.7878 6.95842 16.7991 2.96969 11.8788 2.96969C6.95842 2.96969 2.96969 6.95842 2.96969 11.8788C2.96969 16.7991 6.95842 20.7878 11.8788 20.7878Z" fill="white"/>
</svg>
